<svg id="Layer_1" enable-background="new 0 0 512 512" height="512" viewBox="0 0 512 512" width="512" xmlns="http://www.w3.org/2000/svg"><g><path d="m116 0v52h-52v460h332v-52h32v-287.515l20-20v-152.485zm-40 500v-436h276v192h32v244zm308-320h-20v-52h20zm-20 12h20v52h-20zm20-76h-20v-52h20zm52 31.515-20 20v280.485h-20v-396h-268v-40h308z"/><path d="m230 288c51.832 0 94-42.168 94-94s-42.168-94-94-94c-51.831 0-94 42.168-94 94s42.169 94 94 94zm0-176c45.215 0 82 36.785 82 82s-36.785 82-82 82-82-36.785-82-82 36.785-82 82-82z"/><path d="m208 256h44v-40h40v-44h-40v-40h-44v40h-40v44h40zm-28-52v-20h40v-40h20v40h40v20h-40v40h-20v-40z"/><path d="m118 324h224v12h-224z"/><path d="m118 356h224v12h-224z"/><path d="m118 388h224v12h-224z"/><path d="m150 420h160v12h-160z"/></g></svg>