<svg id="Layer_1" enable-background="new 0 0 512 512" height="512" viewBox="0 0 512 512" width="512" xmlns="http://www.w3.org/2000/svg"><g><path d="m470 83.515-83.515-83.515h-248.485v308.181c-53.461 3.117-96 47.591-96 101.819 0 56.243 45.757 102 102 102 38.087 0 71.36-20.987 88.876-52h237.124zm-80-63.03 59.515 59.515h-59.515zm-246 479.515c-49.626 0-90-40.374-90-90s40.374-90 90-90 90 40.374 90 90-40.374 90-90 90zm94.653-52c4.734-11.75 7.347-24.575 7.347-38 0-54.228-42.539-98.702-96-101.819v-296.181h228v80h80v356z"/><path d="m192 64h160v12h-160z"/><path d="m192 96h128v12h-128z"/><path d="m186 188h236v-44h-236zm224-12h-164v-20h164zm-212-20h36v20h-36z"/><path d="m192 288h224v12h-224z"/><path d="m192 256h224v12h-224z"/><path d="m192 224h224v12h-224z"/><path d="m240 320h176v12h-176z"/><path d="m352 352h64v12h-64z"/><path d="m166 394c0-20.953-17.047-38-38-38s-38 17.047-38 38 17.047 38 38 38c8.316 0 16.01-2.692 22.274-7.241l37.483 37.483 8.485-8.485-37.483-37.483c4.549-6.264 7.241-13.959 7.241-22.274zm-38 26c-14.336 0-26-11.664-26-26s11.664-26 26-26 26 11.664 26 26-11.664 26-26 26z"/></g></svg>