<svg id="Layer_1" enable-background="new 0 0 512 512" height="512" viewBox="0 0 512 512" width="512" xmlns="http://www.w3.org/2000/svg"><g><path d="m470 83.515-83.515-83.515h-248.485v308.181c-53.46 3.117-96 47.591-96 101.819 0 56.243 45.757 102 102 102 38.087 0 71.36-20.987 88.876-52h237.124zm-80-63.03 59.515 59.515h-59.515zm-246 479.515c-49.626 0-90-40.374-90-90s40.374-90 90-90 90 40.374 90 90-40.374 90-90 90zm94.653-52c4.734-11.75 7.347-24.575 7.347-38 0-54.228-42.54-98.702-96-101.819v-296.181h228v80h80v356z"/><path d="m192 64h160v12h-160z"/><path d="m192 96h128v12h-128z"/><path d="m192 176h192v12h-192z"/><path d="m192 144h224v12h-224z"/><path d="m192 256h192v12h-192z"/><path d="m192 224h224v12h-224z"/><path d="m256 336h128v12h-128z"/><path d="m224 304h192v12h-192z"/><path d="m126 432h36v-92h-36zm12-80h12v68h-12z"/><path d="m126 480h36v-36h-36zm12-24h12v12h-12z"/></g></svg>